<?xml version="1.0" encoding="UTF-8" standalone="no"?>
<svg
   version="1.1"
   id="Logo"
   x="0"
   y="0"
   viewBox="0 0 192 192"
   xml:space="preserve"
   width="128"
   height="128"
   sodipodi:docname="icon.svg"
   inkscape:version="1.4.2 (f4327f4, 2025-05-13)"
   inkscape:export-filename="..\chrome\content\images\icon-128.png"
   inkscape:export-xdpi="96"
   inkscape:export-ydpi="96"
   xmlns:inkscape="http://www.inkscape.org/namespaces/inkscape"
   xmlns:sodipodi="http://sodipodi.sourceforge.net/DTD/sodipodi-0.dtd"
   xmlns:xlink="http://www.w3.org/1999/xlink"
   xmlns="http://www.w3.org/2000/svg"
   xmlns:svg="http://www.w3.org/2000/svg"
   xmlns:rdf="http://www.w3.org/1999/02/22-rdf-syntax-ns#"
   xmlns:cc="http://creativecommons.org/ns#"
   xmlns:dc="http://purl.org/dc/elements/1.1/"><metadata
     id="metadata19"><rdf:RDF><cc:Work
         rdf:about=""><dc:format>image/svg+xml</dc:format><dc:type
           rdf:resource="http://purl.org/dc/dcmitype/StillImage" /></cc:Work></rdf:RDF></metadata><defs
     id="defs17"><linearGradient
       id="linearGradient34"
       inkscape:collect="always"><stop
         style="stop-color:#93901b;stop-opacity:1;"
         offset="0"
         id="stop32" /><stop
         style="stop-color:#56a02a;stop-opacity:1;"
         offset="0.50863463"
         id="stop33" /><stop
         style="stop-color:#066f5c;stop-opacity:1;"
         offset="1"
         id="stop34" /></linearGradient><linearGradient
       id="linearGradient31"
       inkscape:collect="always"><stop
         style="stop-color:#b4b120;stop-opacity:1;"
         offset="0"
         id="stop29" /><stop
         style="stop-color:#6cc934;stop-opacity:1;"
         offset="0.50863463"
         id="stop30" /><stop
         style="stop-color:#07a285;stop-opacity:1;"
         offset="1"
         id="stop31" /></linearGradient><linearGradient
       id="linearGradient1"
       inkscape:collect="always"><stop
         style="stop-color:#fffa1f;stop-opacity:1;"
         offset="0"
         id="stop1" /><stop
         style="stop-color:#9eff64;stop-opacity:1;"
         offset="0.50863463"
         id="stop3" /><stop
         style="stop-color:#62ffe2;stop-opacity:1;"
         offset="1"
         id="stop2" /></linearGradient><linearGradient
       inkscape:collect="always"
       xlink:href="#linearGradient1"
       id="linearGradient2"
       x1="0.16496611"
       y1="199.96812"
       x2="76.940132"
       y2="328.82162"
       gradientUnits="userSpaceOnUse"
       gradientTransform="matrix(1.2336403,0,0,1.2336403,44.087966,-221.14024)" /><linearGradient
       inkscape:collect="always"
       xlink:href="#linearGradient1"
       id="linearGradient28"
       gradientUnits="userSpaceOnUse"
       gradientTransform="matrix(1.2336403,0,0,1.2336403,44.087966,-221.14024)"
       x1="0.16496611"
       y1="199.96812"
       x2="76.940132"
       y2="328.82162" /><filter
       inkscape:collect="always"
       style="color-interpolation-filters:sRGB"
       id="filter29"
       x="-0.052494346"
       y="-0.082387328"
       width="1.1049887"
       height="1.1647747"><feGaussianBlur
         inkscape:collect="always"
         stdDeviation="3.9103845"
         id="feGaussianBlur29" /></filter><linearGradient
       inkscape:collect="always"
       xlink:href="#linearGradient31"
       id="linearGradient29"
       gradientUnits="userSpaceOnUse"
       gradientTransform="matrix(1.2336403,0,0,1.2336403,44.087966,-215.29116)"
       x1="0.16496611"
       y1="199.96812"
       x2="76.940132"
       y2="328.82162" /><filter
       inkscape:collect="always"
       style="color-interpolation-filters:sRGB"
       id="filter29-5"
       x="-0.052494346"
       y="-0.082387328"
       width="1.1049887"
       height="1.1647747"><feGaussianBlur
         inkscape:collect="always"
         stdDeviation="3.9103845"
         id="feGaussianBlur29-2" /></filter><linearGradient
       inkscape:collect="always"
       xlink:href="#linearGradient34"
       id="linearGradient32"
       gradientUnits="userSpaceOnUse"
       gradientTransform="matrix(1.2336403,0,0,1.2336403,44.087966,-215.29116)"
       x1="0.16496611"
       y1="199.96812"
       x2="76.940132"
       y2="328.82162" /></defs><sodipodi:namedview
     pagecolor="#ffffff"
     bordercolor="#666666"
     borderopacity="1"
     objecttolerance="10"
     gridtolerance="10"
     guidetolerance="10"
     inkscape:pageopacity="0"
     inkscape:pageshadow="2"
     inkscape:window-width="1920"
     inkscape:window-height="1001"
     id="namedview15"
     showgrid="false"
     inkscape:zoom="2"
     inkscape:cx="46.5"
     inkscape:cy="117.25"
     inkscape:window-x="-9"
     inkscape:window-y="-9"
     inkscape:window-maximized="1"
     inkscape:current-layer="use24"
     inkscape:showpageshadow="2"
     inkscape:pagecheckerboard="0"
     inkscape:deskcolor="#d1d1d1"><inkscape:page
       x="0"
       y="0"
       width="192"
       height="192"
       id="page2"
       margin="0"
       bleed="0" /><inkscape:page
       x="-4.1694794"
       y="216.0388"
       width="96"
       height="96"
       id="page3"
       margin="0"
       bleed="0" /><inkscape:page
       x="101.23729"
       y="215.31401"
       width="72"
       height="72"
       id="page4"
       margin="0"
       bleed="0" /><inkscape:page
       x="99.115967"
       y="297.51517"
       width="48"
       height="48"
       id="page5"
       margin="0"
       bleed="0"
       inkscape:export-filename="..\chrome\content\images\icon-16.png"
       inkscape:export-xdpi="96"
       inkscape:export-ydpi="96" /><inkscape:page
       x="63.583847"
       y="324.56201"
       width="24"
       height="24"
       id="page6"
       margin="0"
       bleed="0" /></sodipodi:namedview><style
     id="style2">.st0{fill:#4c4c4c}</style><g
     id="g2"
     transform="matrix(0.96926134,0,0,0.96926134,2.9508581,2.9505634)"><path
       d="m 61.857261,158.80519 c -20.275674,0 -31.932812,0 -43.589966,-11.65715 C 6.6101566,135.49091 6.6101566,123.83377 6.6101566,103.55808 v -3.41796 c 0,-20.275708 0,-31.932844 11.6571384,-43.589992 C 29.924449,44.89298 41.581587,44.89298 61.857261,44.89298 H 130.1427 c 20.27571,0 31.93285,0 43.58999,11.657148 11.65715,11.657148 11.65715,23.314284 11.65715,43.589992 v 3.41796 c 0,20.27569 0,31.93283 -11.65715,43.58996 -11.65714,11.65715 -23.31428,11.65715 -43.58999,11.65715 z"
       id="path29"
       inkscape:connector-curvature="0"
       style="opacity:0.80753138;fill:url(#linearGradient29);fill-opacity:1;fill-rule:evenodd;stroke:none;stroke-width:1.48983;filter:url(#filter29)"
       sodipodi:nodetypes="sssscssssssss" /><path
       d="m 61.857261,152.95611 c -20.275674,0 -31.932812,0 -43.589966,-11.65715 C 6.6101566,129.64183 6.6101566,117.98469 6.6101566,97.708999 v -3.417967 c 0,-20.275704 0,-31.93284 11.6571384,-43.589988 C 29.924449,39.043896 41.581587,39.043896 61.857261,39.043896 H 130.1427 c 20.27571,0 31.93285,0 43.58999,11.657148 11.65715,11.657148 11.65715,23.314284 11.65715,43.589988 v 3.417967 c 0,20.275691 0,31.932831 -11.65715,43.589961 -11.65714,11.65715 -23.31428,11.65715 -43.58999,11.65715 z"
       id="Rectangle 7"
       inkscape:connector-curvature="0"
       style="fill:url(#linearGradient2);fill-opacity:1;fill-rule:evenodd;stroke:none;stroke-width:1.48983"
       sodipodi:nodetypes="sssscssssssss" /><use
       x="0"
       y="0"
       xlink:href="#g9"
       id="use15"
       transform="rotate(180,96.000055,96.000359)" /><g
       id="g9"
       transform="rotate(180,98.834645,110.17324)"
       style="fill:#7c00ff;fill-opacity:1"><g
         id="g8"
         transform="matrix(1.2219586,0,0,1.2219586,44.579534,-218.13717)"
         style="fill:#7c00ff;fill-opacity:1;stroke:#ffffff;stroke-opacity:1"><path
           style="baseline-shift:baseline;display:inline;overflow:visible;opacity:1;vector-effect:none;fill:#7c00ff;fill-opacity:1;fill-rule:evenodd;stroke:none;enable-background:accumulate;stop-color:#000000;stop-opacity:1"
           d="m -27.728516,270.95703 v 11.67578 c 0,7.58839 -0.02956,13.72133 1.154297,19.33203 1.183858,5.61071 3.715538,10.64132 8.419922,15.34571 4.704389,4.70438 9.7350026,7.23801 15.3457032,8.42187 5.6107007,1.18386 11.7436533,1.15235 19.3320308,1.15235 h 24.822266 v -5.79688 H 16.523437 c -7.5883775,0 -13.4070692,-0.0298 -18.1347651,-1.02734 -4.727696,-0.99755 -8.4221309,-2.82839 -12.4433599,-6.84961 -4.021222,-4.02123 -5.850112,-7.71566 -6.847656,-12.44336 -0.997544,-4.7277 -1.029297,-10.54638 -1.029297,-18.13477 v -11.67578 z"
           id="path8" /></g><path
         sodipodi:type="star"
         style="fill:#7c00ff;fill-opacity:1;stroke:none;stroke-width:5.79682;stroke-linejoin:miter;stroke-dasharray:none;stroke-opacity:1"
         id="path9"
         inkscape:flatsided="false"
         sodipodi:sides="3"
         sodipodi:cx="-57.327557"
         sodipodi:cy="193.32986"
         sodipodi:r1="21.58293"
         sodipodi:r2="10.791465"
         sodipodi:arg1="0.52739092"
         sodipodi:arg2="1.5745885"
         inkscape:rounded="0"
         inkscape:randomized="0"
         d="m -38.677248,204.19213 -18.691232,-0.0709 -18.69123,-0.0709 9.406999,-16.15164 9.407,-16.15164 9.284231,16.22252 z"
         inkscape:transform-center-x="0.021886141"
         inkscape:transform-center-y="-2.2833279"
         transform="matrix(0.53482037,0,0,0.53482037,44.850593,11.67746)" /></g><g
       id="g1"
       transform="matrix(1.1592806,0,0,1.1592806,-15.290885,-15.275106)"><text
         xml:space="preserve"
         style="font-style:normal;font-variant:normal;font-weight:900;font-stretch:normal;font-size:45.9717px;font-family:Inter;-inkscape-font-specification:'Inter Heavy';text-align:center;letter-spacing:1.33494px;text-anchor:middle;fill:#000000;fill-opacity:1;stroke:none;stroke-width:7.23965;stroke-linejoin:round"
         x="96"
         y="103.96111"
         id="text1"><tspan
           sodipodi:role="line"
           id="tspan1"
           style="font-style:normal;font-variant:normal;font-weight:900;font-stretch:normal;font-family:Inter;-inkscape-font-specification:'Inter Heavy';letter-spacing:1.33494px;fill:#000000;fill-opacity:1;stroke:none;stroke-width:7.23965"
           x="96.667473"
           y="103.96111"
           dx="0 -1.0140905">GUID</tspan></text><text
         xml:space="preserve"
         style="font-style:normal;font-variant:normal;font-weight:900;font-stretch:normal;font-size:16.8894px;font-family:Inter;-inkscape-font-specification:'Inter Heavy';text-align:center;letter-spacing:3.09988px;text-anchor:middle;fill:#000000;fill-opacity:1;stroke:none;stroke-width:2.65976;stroke-linejoin:round"
         x="95.697502"
         y="121.73529"
         id="text10"><tspan
           sodipodi:role="line"
           id="tspan10"
           style="font-style:normal;font-variant:normal;font-weight:900;font-stretch:normal;font-family:Inter;-inkscape-font-specification:'Inter Heavy';letter-spacing:3.09988px;fill:#000000;fill-opacity:1;stroke:none;stroke-width:2.65976"
           x="97.247444"
           y="121.73529">RESOLVER</tspan></text></g></g><use
     x="0"
     y="0"
     xlink:href="#g2"
     id="use2"
     transform="matrix(0.5,0,0,0.5,-4.1694794,216.0388)" /><use
     x="0"
     y="0"
     xlink:href="#g2"
     id="use2-8"
     transform="matrix(0.376,0,0,0.376,101.14129,215.21801)" /><g
     id="use24"
     transform="matrix(0.24616162,0,0,0.24616162,99.484438,297.88356)"><path
       d="m 61.857261,158.80519 c -20.275674,0 -31.932812,0 -43.589966,-11.65715 C 6.6101566,135.49091 6.6101566,123.83377 6.6101566,103.55808 v -3.41796 c 0,-20.275708 0,-31.932844 11.6571384,-43.589992 C 29.924449,44.89298 41.581587,44.89298 61.857261,44.89298 H 130.1427 c 20.27571,0 31.93285,0 43.58999,11.657148 11.65715,11.657148 11.65715,23.314284 11.65715,43.589992 v 3.41796 c 0,20.27569 0,31.93283 -11.65715,43.58996 -11.65714,11.65715 -23.31428,11.65715 -43.58999,11.65715 z"
       id="path29-6"
       inkscape:connector-curvature="0"
       style="opacity:0.807531;fill:url(#linearGradient32);fill-opacity:1;fill-rule:evenodd;stroke:none;stroke-width:1.48983;filter:url(#filter29-5)"
       sodipodi:nodetypes="sssscssssssss"
       transform="matrix(0.98706305,0,0,0.98706305,0.77090661,1.7303315)" /><path
       d="m 61.857261,152.95611 c -20.275674,0 -31.932812,0 -43.589966,-11.65715 C 6.6101566,129.64183 6.6101566,117.98469 6.6101566,97.708999 v -3.417967 c 0,-20.275704 0,-31.93284 11.6571384,-43.589988 C 29.924449,39.043896 41.581587,39.043896 61.857261,39.043896 H 130.1427 c 20.27571,0 31.93285,0 43.58999,11.657148 11.65715,11.657148 11.65715,23.314284 11.65715,43.589988 v 3.417967 c 0,20.275691 0,31.932831 -11.65715,43.589961 -11.65714,11.65715 -23.31428,11.65715 -43.58999,11.65715 z"
       id="path24"
       inkscape:connector-curvature="0"
       style="fill:url(#linearGradient28);fill-opacity:1;fill-rule:evenodd;stroke:none;stroke-width:1.48983"
       sodipodi:nodetypes="sssscssssssss" /><use
       x="0"
       y="0"
       xlink:href="#g9"
       id="use25"
       transform="rotate(180,96.000055,96.000359)" /><use
       x="0"
       y="0"
       xlink:href="#g9"
       id="use29" /><text
       xml:space="preserve"
       style="font-style:normal;font-variant:normal;font-weight:900;font-stretch:normal;font-size:57.7634px;font-family:Inter;-inkscape-font-specification:'Inter Heavy';text-align:center;letter-spacing:3.04678px;text-anchor:middle;fill:#000000;fill-opacity:1;stroke:none;stroke-width:9.0966;stroke-linejoin:round"
       x="96"
       y="117.00485"
       id="text26"><tspan
         sodipodi:role="line"
         id="tspan26"
         style="font-style:normal;font-variant:normal;font-weight:900;font-stretch:normal;font-family:Inter;-inkscape-font-specification:'Inter Heavy';letter-spacing:3.04678px;fill:#000000;fill-opacity:1;stroke:none;stroke-width:9.0966"
         x="97.523392"
         y="117.00485"
         dx="0 -1.2742016">GUID</tspan></text></g><use
     x="0"
     y="0"
     xlink:href="#use24"
     id="use28"
     transform="matrix(0.49999998,0,0,0.49999998,14.025866,175.80444)" /></svg>
