<?xml version="1.0" encoding="UTF-8" standalone="no"?>
<svg
   version="1.1"
   id="Logo"
   x="0"
   y="0"
   viewBox="0 0 192 192"
   xml:space="preserve"
   width="128"
   height="128"
   sodipodi:docname="icon.svg"
   inkscape:version="1.3.1 (91b66b0783, 2023-11-16)"
   inkscape:export-filename="icon-48.png"
   inkscape:export-xdpi="9"
   inkscape:export-ydpi="9"
   xmlns:inkscape="http://www.inkscape.org/namespaces/inkscape"
   xmlns:sodipodi="http://sodipodi.sourceforge.net/DTD/sodipodi-0.dtd"
   xmlns="http://www.w3.org/2000/svg"
   xmlns:svg="http://www.w3.org/2000/svg"
   xmlns:rdf="http://www.w3.org/1999/02/22-rdf-syntax-ns#"
   xmlns:cc="http://creativecommons.org/ns#"
   xmlns:dc="http://purl.org/dc/elements/1.1/"><metadata
     id="metadata19"><rdf:RDF><cc:Work
         rdf:about=""><dc:format>image/svg+xml</dc:format><dc:type
           rdf:resource="http://purl.org/dc/dcmitype/StillImage" /></cc:Work></rdf:RDF></metadata><defs
     id="defs17" /><sodipodi:namedview
     pagecolor="#ffffff"
     bordercolor="#666666"
     borderopacity="1"
     objecttolerance="10"
     gridtolerance="10"
     guidetolerance="10"
     inkscape:pageopacity="0"
     inkscape:pageshadow="2"
     inkscape:window-width="1920"
     inkscape:window-height="1001"
     id="namedview15"
     showgrid="false"
     inkscape:zoom="4"
     inkscape:cx="74.625"
     inkscape:cy="71.125"
     inkscape:window-x="-9"
     inkscape:window-y="-9"
     inkscape:window-maximized="1"
     inkscape:current-layer="g2"
     inkscape:showpageshadow="2"
     inkscape:pagecheckerboard="0"
     inkscape:deskcolor="#d1d1d1" /><style
     id="style2">.st0{fill:#4c4c4c}</style><g
     id="g2"
     transform="matrix(1.2938134,0,0,1.2938134,41.555859,-236.60936)"><path
       d="m 14.403951,329.53698 c -16.4356447,0 -25.885027,0 -35.334422,-9.44939 -9.449382,-9.44938 -9.449382,-18.89876 -9.449382,-35.33442 v -55.35279 c 0,-16.43567 0,-25.88505 9.449382,-35.33444 9.449395,-9.44939 18.8987773,-9.44939 35.334422,-9.44939 h 55.352794 c 16.435677,0 25.885059,0 35.334445,9.44939 9.44939,9.44939 9.44939,18.89877 9.44939,35.33444 v 55.35279 c 0,16.43566 0,25.88504 -9.44939,35.33442 -9.449386,9.44939 -18.898768,9.44939 -35.334445,9.44939 z m 0,0"
       id="Rectangle 7"
       inkscape:connector-curvature="0"
       style="fill:#62ffe2;fill-opacity:1;fill-rule:evenodd;stroke:none;stroke-width:1.20767" /><g
       id="g1"
       transform="matrix(0.15691924,0,0,0.15691924,3.7523891,188.9984)"><path
         class="st0"
         d="M 488.50575,386.2069 V 128.73563 L 265.51724,0 v 98.850575 l 87.35632,50.574715 c 3.44828,2.29885 3.44828,6.89655 0,8.04597 l -103.44827,59.77012 c -3.44828,2.29885 -6.89655,1.14942 -9.1954,0 L 136.78161,157.47126 c -3.44828,-1.14942 -3.44828,-6.89655 0,-8.04597 L 224.13793,98.850575 V 0 L 0,128.73563 v 257.47127 -1.14943 1.14943 L 85.057471,336.78161 V 235.63218 c 0,-3.44827 4.597701,-5.74712 6.896552,-4.5977 L 195.4023,290.8046 c 3.44827,2.29885 4.5977,4.5977 4.5977,8.04597 V 418.3908 c 0,3.44828 -4.5977,5.74713 -6.89655,4.59771 L 105.74713,372.41379 20.689655,421.83908 243.67816,551.72414 466.66667,422.98851 381.6092,373.56322 294.25287,424.13793 c -3.44827,2.29885 -6.89655,0 -6.89655,-4.5977 V 300 c 0,-3.44828 2.29885,-6.89655 4.5977,-8.04598 L 395.4023,232.18391 c 3.44827,-2.29885 6.89655,0 6.89655,4.5977 v 101.14942 z"
         id="path6"
         style="stroke-width:11.4943" /><path
         d="M 243.67816,551.72414 466.66667,422.98851 381.6092,373.56322 294.25287,424.13793 c -3.44827,2.29885 -6.89655,0 -6.89655,-4.5977 V 300 c 0,-3.44828 2.29885,-6.89655 4.5977,-8.04598 L 395.4023,232.18391 c 3.44827,-2.29885 6.89655,0 6.89655,4.5977 v 101.14942 l 85.05747,49.42529 V 128.73563 L 243.67816,270.11494 Z"
         id="path8"
         style="stroke-width:11.4943" /><path
         d="m 265.51724,0 v 98.850575 l 87.35632,50.574715 c 3.44828,2.29885 3.44828,6.89655 0,8.04597 l -103.44827,59.77012 c -3.44828,2.29885 -6.89655,1.14942 -9.1954,0 L 136.78161,157.47126 c -3.44828,-1.14942 -3.44828,-6.89655 0,-8.04597 L 224.13793,98.850575 V 0 L 0,128.73563 243.67816,270.11494 487.35632,128.73563 Z"
         fill="#808080"
         id="path10"
         style="stroke-width:11.4943" /><path
         class="st0"
         d="M 194.25287,424.13793 106.89655,373.56322 21.83908,422.98851 244.82759,551.72414 V 270.11494 L 0,128.73563 v 257.47127 -1.14943 1.14943 L 85.057471,336.78161 V 235.63218 c 0,-3.44827 4.597701,-5.74712 6.896552,-4.5977 L 195.4023,290.8046 c 3.44827,2.29885 4.5977,4.5977 4.5977,8.04597 V 418.3908 c 1.14943,4.59771 -2.29885,8.04598 -5.74713,5.74713 z"
         id="path12"
         style="stroke-width:11.4943" /></g><text
       xml:space="preserve"
       style="font-style:normal;font-variant:normal;font-weight:900;font-stretch:normal;font-size:50.6315px;font-family:Inter;-inkscape-font-specification:'Inter Heavy';text-align:center;text-anchor:middle;fill:#000000;fill-opacity:1;stroke:none;stroke-width:7.97345;stroke-linejoin:round"
       x="42.080349"
       y="320.20636"
       id="text1"><tspan
         sodipodi:role="line"
         id="tspan1"
         style="font-style:normal;font-variant:normal;font-weight:900;font-stretch:normal;font-family:Inter;-inkscape-font-specification:'Inter Heavy';fill:#000000;fill-opacity:1;stroke:none;stroke-width:7.9735"
         x="42.080349"
         y="320.20636"
         dx="0 -1.1168811">GUID</tspan></text></g></svg>
